<svg xmlns="http://www.w3.org/2000/svg" viewBox="0 0 70.81 70.85"><defs><style>.cls-1{font-size:6.32px;fill:#713eff;font-family:BigillaBold, Bigilla;}</style></defs><title>Ресурс 1</title><g id="Слой_2" data-name="Слой 2"><g id="Слой_1-2" data-name="Слой 1"><text class="cls-1" transform="matrix(0.43, -0.9, 0.9, 0.43, 7.6, 23.9)">S</text><text class="cls-1" transform="matrix(0.53, -0.85, 0.85, 0.53, 9.1, 20.8)">T</text><text class="cls-1" transform="translate(10.94 17.91) rotate(-51.5)">A</text><text class="cls-1" transform="translate(13.12 15.23) rotate(-45.26)">Y</text><text class="cls-1" transform="translate(15.37 13.02) rotate(-40.26)"> </text><text class="cls-1" transform="matrix(0.8, -0.59, 0.59, 0.8, 17.01, 11.67)">I</text><text class="cls-1" transform="translate(18.51 10.52) rotate(-30.64)">N</text><text class="cls-1" transform="translate(22.14 8.46) rotate(-24.64)"> </text><text class="cls-1" transform="translate(24.06 7.58) rotate(-19.27)">T</text><text class="cls-1" transform="matrix(0.98, -0.19, 0.19, 0.98, 27.26, 6.41)">O</text><text class="cls-1" transform="translate(32.7 5.5) rotate(-2.13)">U</text><text class="cls-1" transform="translate(36.2 5.33) rotate(6.25)">C</text><text class="cls-1" transform="matrix(0.97, 0.26, -0.26, 0.97, 41.54, 6.02)">H</text><text class="cls-1" transform="translate(45.01 7) rotate(20.29)"> </text><text class="cls-1" transform="translate(46.99 7.72) rotate(25.64)">S</text><text class="cls-1" transform="translate(50.07 9.23) rotate(32.19)">T</text><text class="cls-1" transform="matrix(0.78, 0.63, -0.63, 0.78, 52.96, 11.09)">A</text><text class="cls-1" transform="translate(55.64 13.28) rotate(45)">Y</text><text class="cls-1" transform="matrix(0.64, 0.77, -0.77, 0.64, 57.82, 15.52)"> </text><text class="cls-1" transform="matrix(0.59, 0.81, -0.81, 0.59, 59.17, 17.17)">I</text><text class="cls-1" transform="matrix(0.51, 0.86, -0.86, 0.51, 60.32, 18.69)">N</text><text class="cls-1" transform="matrix(0.41, 0.91, -0.91, 0.41, 62.36, 22.33)"> </text><text class="cls-1" transform="matrix(0.33, 0.95, -0.95, 0.33, 63.23, 24.23)">T</text><text class="cls-1" transform="matrix(0.18, 0.98, -0.98, 0.18, 64.39, 27.44)">O</text><text class="cls-1" transform="translate(65.28 32.89) rotate(88.1)">U</text><text class="cls-1" transform="translate(65.43 36.41) rotate(96.52)">C</text><text class="cls-1" transform="matrix(-0.26, 0.97, -0.97, -0.26, 64.72, 41.75)">H</text><text class="cls-1" transform="translate(63.73 45.21) rotate(110.55)"> </text><text class="cls-1" transform="translate(63 47.17) rotate(115.86)">S</text><text class="cls-1" transform="matrix(-0.54, 0.84, -0.84, -0.54, 61.48, 50.23)">T</text><text class="cls-1" transform="matrix(-0.63, 0.78, -0.78, -0.63, 59.6, 53.14)">A</text><text class="cls-1" transform="translate(57.4 55.81) rotate(135.26)">Y</text><text class="cls-1" transform="matrix(-0.77, 0.64, -0.64, -0.77, 55.14, 57.98)"> </text><text class="cls-1" transform="matrix(-0.81, 0.59, -0.59, -0.81, 53.49, 59.32)">I</text><text class="cls-1" transform="translate(51.99 60.45) rotate(149.84)">N</text><text class="cls-1" transform="translate(48.33 62.48) rotate(155.85)"> </text><text class="cls-1" transform="matrix(-0.95, 0.32, -0.32, -0.95, 46.4, 63.36)">T</text><text class="cls-1" transform="translate(43.19 64.49) rotate(169.78)">O</text><text class="cls-1" transform="translate(37.74 65.36) rotate(178.37)">U</text><text class="cls-1" transform="translate(34.24 65.5) rotate(-173.25)">C</text><text class="cls-1" transform="translate(28.88 64.76) rotate(-164.68)">H</text><text class="cls-1" transform="matrix(-0.94, -0.35, 0.35, -0.94, 25.45, 63.76)"> </text><text class="cls-1" transform="translate(23.48 63.02) rotate(-153.88)">S</text><text class="cls-1" transform="matrix(-0.84, -0.54, 0.54, -0.84, 20.42, 61.49)">T</text><text class="cls-1" transform="matrix(-0.77, -0.63, 0.63, -0.77, 17.53, 59.6)">A</text><text class="cls-1" transform="translate(14.86 57.38) rotate(-134.49)">Y</text><text class="cls-1" transform="matrix(-0.64, -0.77, 0.77, -0.64, 12.7, 55.11)"> </text><text class="cls-1" transform="matrix(-0.58, -0.81, 0.81, -0.58, 11.36, 53.46)">I</text><text class="cls-1" transform="matrix(-0.5, -0.87, 0.87, -0.5, 10.24, 51.94)">N</text><text class="cls-1" transform="translate(8.23 48.28) rotate(-113.89)"> </text><text class="cls-1" transform="matrix(-0.32, -0.95, 0.95, -0.32, 7.36, 46.35)">T</text><text class="cls-1" transform="matrix(-0.17, -0.98, 0.98, -0.17, 6.24, 43.15)">O</text><text class="cls-1" transform="matrix(-0.02, -1, 1, -0.02, 5.4, 37.69)">U</text><text class="cls-1" transform="matrix(0.12, -0.99, 0.99, 0.12, 5.27, 34.19)">C</text><text class="cls-1" transform="translate(6.03 28.84) rotate(-74.46)">H</text></g></g></svg>