<svg width="98" height="98" viewBox="0 0 98 98" fill="none" xmlns="http://www.w3.org/2000/svg">
<path d="M48.9994 7.59908C26.1847 7.59908 7.62305 26.1714 7.62305 49C7.62305 71.8286 26.1847 90.4009 48.9994 90.4009C71.8148 90.4009 90.3772 71.8286 90.3772 49C90.3772 26.1714 71.8148 7.59908 48.9994 7.59908ZM48.9994 86.3176C28.4347 86.3176 11.704 69.5766 11.704 49C11.704 28.4234 28.4347 11.6824 48.9994 11.6824C69.5655 11.6824 86.2962 28.4234 86.2962 49C86.2962 69.5766 69.5655 86.3176 48.9994 86.3176Z" fill="#713EFF"/>
<path d="M44.4211 48.0758C45.6937 47.4994 46.7024 46.6351 47.4458 45.4815C48.1892 44.3287 48.5612 43.0608 48.5612 41.6799C48.5612 40.4066 48.2599 39.2565 47.6573 38.2316C47.054 37.206 46.2997 36.3845 45.3958 35.768C44.4911 35.1514 43.4661 34.7464 42.3207 34.5518C41.1753 34.3572 39.4375 34.2598 37.1052 34.2598H25.3262V63.7422H35.3552C39.1471 63.7143 41.5392 63.6476 42.5309 63.5401C44.1116 63.3658 45.442 62.8997 46.5201 62.1429C47.5995 61.3854 48.4504 60.3721 49.0734 59.1056C49.6964 57.8391 50.0073 56.5351 50.0073 55.1937C50.0073 53.491 49.525 52.0101 48.5606 50.749C47.5968 49.4907 46.2154 48.5985 44.4211 48.0758ZM31.2749 39.1666H34.692C37.4923 39.1666 39.1872 39.2 39.7776 39.2667C40.7686 39.3878 41.5161 39.7336 42.0181 40.3018C42.5207 40.8728 42.7717 41.6132 42.7717 42.5245C42.7717 43.4766 42.4806 44.2443 41.8977 44.8275C41.3148 45.4107 40.5142 45.7626 39.496 45.8837C38.9335 45.9511 37.4929 45.9838 35.1743 45.9838H31.2749V39.1666V39.1666ZM43.024 57.4164C42.4677 58.0398 41.7474 58.4318 40.8631 58.5931C40.2864 58.7142 38.926 58.7741 36.7828 58.7741H31.2749V50.8913H36.0789C38.7852 50.8913 40.5435 51.0308 41.3549 51.3125C42.165 51.5943 42.7853 52.0434 43.2138 52.66C43.6423 53.2766 43.8566 54.0279 43.8566 54.9133C43.8572 55.9587 43.5797 56.793 43.024 57.4164Z" fill="#713EFF"/>
<path d="M69.56 44.3661C67.6297 42.2686 64.9968 41.2192 61.6586 41.2192C58.6869 41.2192 56.2295 42.2217 54.2856 44.2259C52.3417 46.2301 51.3711 49.0014 51.3711 52.5409C51.3711 55.5041 52.1098 57.9575 53.5898 59.9018C55.4616 62.3287 58.3496 63.5414 62.2496 63.5414C64.7152 63.5414 66.768 63.0017 68.4085 61.9224C70.0491 60.8444 72.1494 58.6142 72.1895 56.6399L66.096 56.676C65.7715 57.7485 65.292 58.1113 64.6601 58.5938C64.0249 59.0763 63.244 59.3179 62.3142 59.3179C60.9485 59.3179 59.8072 58.8524 58.8923 57.9207C57.9768 56.9877 57.4987 55.6837 57.4565 54.0089H72.3283C72.4106 49.6792 71.489 46.4649 69.56 44.3661ZM57.5599 50.5496C57.5456 49.0088 57.9612 47.7886 58.806 46.8903C59.6507 45.9926 60.7213 45.5435 62.0184 45.5435C63.2284 45.5435 64.2568 45.9688 65.1016 46.8202C65.9463 47.6716 66.3905 48.9149 66.4326 50.5496H57.5599V50.5496Z" fill="#713EFF"/>
<path d="M67.8657 35.5202H55.9785V38.3969H67.8657V35.5202Z" fill="#713EFF"/>
</svg>
