<svg width="86" height="86" viewBox="0 0 86 86" fill="none" xmlns="http://www.w3.org/2000/svg">
<path d="M84.824 43.168C84.824 49.0133 84.7064 54.8754 84.8576 60.7207C85.1096 71.0676 78.6092 79.0629 70.3283 82.6238C67.0025 84.0516 63.5088 84.8074 59.8975 84.8074C48.5932 84.8242 37.2721 84.9754 25.9678 84.7571C17.4518 84.5891 10.4475 81.0281 5.4252 74.0071C2.78809 70.3117 1.52832 66.1125 1.52832 61.5606C1.52832 49.5172 1.52832 37.4906 1.52832 25.4473C1.52832 15.6211 6.31543 8.7512 14.8146 4.28323C18.51 2.35159 22.5244 1.52854 26.7068 1.51175C37.6752 1.51175 48.6604 1.44456 59.6287 1.54534C68.1447 1.61253 75.2498 4.87112 80.4904 11.7242C83.4131 15.5539 84.824 19.9547 84.824 24.7922C84.824 30.9063 84.824 37.0371 84.824 43.168ZM7.72637 43.168C7.72637 49.3324 7.72637 55.4801 7.72637 61.6446C7.72637 64.3992 8.36465 66.986 9.79238 69.3207C13.5381 75.4516 19.1986 78.4414 26.2197 78.559C37.4904 78.727 48.7779 78.6262 60.0654 78.5926C62.8369 78.5926 65.5244 78.0215 68.0271 76.8289C74.8467 73.5703 78.6596 68.3801 78.626 60.5864C78.5588 48.6606 78.6092 36.7348 78.6092 24.809C78.6092 21.4328 77.6518 18.3422 75.6529 15.6211C71.7896 10.3973 66.4482 7.82737 60.0654 7.76018C48.8115 7.62581 37.5576 7.70979 26.3037 7.72659C23.9018 7.72659 21.5838 8.2137 19.333 9.05354C13.1518 11.3547 7.40723 17.1832 7.67598 25.7664C7.87754 31.5781 7.72637 37.3731 7.72637 43.168Z" fill="white"/>
<path d="M43.2688 60.9727C32.4348 60.9727 23.7004 52.3391 23.6836 41.5891C23.6668 31.0071 32.4684 22.3399 43.2352 22.3399C54.0356 22.3231 62.8035 30.9735 62.8203 41.6395C62.8203 52.2887 54.0692 60.9559 43.2688 60.9727ZM43.2688 54.7578C50.6426 54.7578 56.6223 48.8621 56.6055 41.6059C56.5887 34.4168 50.609 28.5379 43.2688 28.5379C35.8949 28.5379 29.8817 34.4 29.8817 41.6395C29.8985 48.8957 35.8949 54.7746 43.2688 54.7578Z" fill="white"/>
<path d="M65.0878 16.4609C67.3554 16.4609 69.203 18.3926 69.203 20.7609C69.1863 23.1293 67.3218 25.0441 65.0542 25.0273C62.8202 25.0105 60.9894 23.0957 60.9894 20.7777C60.9726 18.4094 62.8202 16.4609 65.0878 16.4609Z" fill="white"/>
</svg>
