<svg width="97" height="97" viewBox="0 0 97 97" fill="none" xmlns="http://www.w3.org/2000/svg">
<path d="M48.5001 7.52154C25.9182 7.52154 7.5459 25.9044 7.5459 48.5C7.5459 71.0963 25.9182 89.4784 48.5001 89.4784C71.0827 89.4784 89.4556 71.0963 89.4556 48.5C89.4549 25.9044 71.082 7.52154 48.5001 7.52154ZM48.5001 85.4368C28.1452 85.4368 11.5852 68.8673 11.5852 48.5C11.5852 28.1334 28.1452 11.5632 48.5001 11.5632C68.855 11.5632 85.4163 28.1334 85.4163 48.5C85.4156 68.8673 68.855 85.4368 48.5001 85.4368Z" fill="white"/>
<path d="M66.7894 35.149C67.7305 34.6627 69.9845 33.2178 71.0468 30.1165C71.0468 30.1165 68.4866 31.9689 65.002 32.1872L64.9387 32.2222C63.156 30.2754 60.593 29.0542 57.7433 29.0542C52.3521 29.0542 47.9822 33.4273 47.9822 38.8215C47.9822 39.64 48.0839 40.4348 48.2744 41.1947L48.2273 41.1239C48.2273 41.1239 37.7721 41.7235 27.9155 30.9342C27.9155 30.9342 23.5577 38.3446 31.019 44.0117C29.3851 44.2839 26.4997 42.8127 26.4997 42.8127C26.4997 42.8127 26.6626 50.6037 34.3952 52.5113C33.143 52.8387 30.8009 52.9465 30.0388 52.6205C30.0388 52.6205 31.1819 58.559 39.0788 59.595C37.0639 60.7395 33.3066 64.2261 24.8105 63.572C24.8105 63.572 30.9113 68.5844 42.2383 67.8771C53.5653 67.1698 61.7887 59.5398 65.1104 51.476C68.432 43.4122 67.5077 38.8209 67.5077 38.8209C67.5077 38.8209 70.2834 37.3632 72.1913 33.8766C71.3101 34.1406 68.0416 34.9395 66.8251 35.2352C66.8129 35.2069 66.8008 35.178 66.7894 35.149Z" fill="white"/>
</svg>
